<svg width="34" height="34" viewBox="0 0 34 32" fill="none" xmlns="http://www.w3.org/2000/svg">
<path fill-rule="evenodd" clip-rule="evenodd" d="M1 13.876V10L17.238 17.3125L33.476 10V13.876L17.238 20.752L1 13.876ZM1 14.5V18.502L17.238 25.75L33.476 18.502V14.5L17.238 21.4375L1 14.5ZM1 23.5V19.1875L17.238 26.5L33.476 19.1875V23.5L17.238 31L1 23.5Z" fill="#F1F1F1"/>
<path d="M33.476 8.5L17.238 1L1 8.5V9.25L17.238 16.5625L33.476 9.25V8.5Z" fill="#F1F1F1"/>
<path fill-rule="evenodd" clip-rule="evenodd" d="M1 13.876V10L17.238 17.3125L33.476 10V13.876L17.238 20.752L1 13.876ZM1 14.5V18.502L17.238 25.75L33.476 18.502V14.5L17.238 21.4375L1 14.5ZM1 23.5V19.1875L17.238 26.5L33.476 19.1875V23.5L17.238 31L1 23.5Z" stroke="" stroke-width="1"/>
<path d="M33.476 8.5L17.238 1L1 8.5V9.25L17.238 16.5625L33.476 9.25V8.5Z" stroke="" stroke-width="0.75"/>
</svg>
