<svg width="34" height="31" viewBox="0 0 34 31" fill="none" xmlns="http://www.w3.org/2000/svg">
<path fill-rule="evenodd" clip-rule="evenodd" d="M1 13.3934V9.51746L17.238 16.83L33.476 9.51746V13.3934L17.238 20.2694L1 13.3934ZM1 14.0175V18.0194L17.238 25.2675L33.476 18.0194V14.0175L17.238 20.955L1 14.0175ZM1 23.0175V18.705L17.238 26.0175L33.476 18.705V23.0175L17.238 30.5175L1 23.0175Z" fill="#F1F1F1"/>
<path d="M33.476 8.01746L17.238 0.517464L1 8.01746V8.76746L17.238 16.08L33.476 8.76746V8.01746Z" fill="#F1F1F1"/>
<path fill-rule="evenodd" clip-rule="evenodd" d="M1 13.3934V9.51746L17.238 16.83L33.476 9.51746V13.3934L17.238 20.2694L1 13.3934ZM1 14.0175V18.0194L17.238 25.2675L33.476 18.0194V14.0175L17.238 20.955L1 14.0175ZM1 23.0175V18.705L17.238 26.0175L33.476 18.705V23.0175L17.238 30.5175L1 23.0175Z" stroke="black" stroke-width="0.75"/>
<path d="M33.476 8.01746L17.238 0.517464L1 8.01746V8.76746L17.238 16.08L33.476 8.76746V8.01746Z" stroke="black" stroke-width="0.75"/>
</svg>
